PathFileType	4	(X/Y/Z)	AB06\squats_1.trc
DataRate	CameraRate	NumFrames	NumMarkers	Units	OrigDataRate	OrigDataStartFrame	OrigNumFrames
200.000000	200.000000	4	35	mm	200.000000	294	392
Frame#	Time	C7			LSHO			LASI			RASI			LPSI			RPSI			LGTR			RGTR			LTHC			LTHL			LTHR			LKNE			LMKNE			LSHC			LSHL			LSHR			LANK			LMANK			LMT1			LMT5			LCAL			RTHC			RTHL			RTHR			RKNE			RMKNE			RSHC			RSHL			RSHR			RANK			RMANK			RMT1			RMT5			RCAL			STRN			
		X1	Y1	Z1	X2	Y2	Z2	X3	Y3	Z3	X4	Y4	Z4	X5	Y5	Z5	X6	Y6	Z6	X7	Y7	Z7	X8	Y8	Z8	X9	Y9	Z9	X10	Y10	Z10	X11	Y11	Z11	X12	Y12	Z12	X13	Y13	Z13	X14	Y14	Z14	X15	Y15	Z15	X16	Y16	Z16	X17	Y17	Z17	X18	Y18	Z18	X19	Y19	Z19	X20	Y20	Z20	X21	Y21	Z21	X22	Y22	Z22	X23	Y23	Z23	X24	Y24	Z24	X25	Y25	Z25	X26	Y26	Z26	X27	Y27	Z27	X28	Y28	Z28	X29	Y29	Z29	X30	Y30	Z30	X31	Y31	Z31	X32	Y32	Z32	X33	Y33	Z33	X34	Y34	Z34	X35	Y35	Z35	

295	46.375	-3602.63373806764	1289.934600035162	2489.550835838125	-3667.469056025219	1199.200011953754	2642.476092334041	-3403.944180679011	809.1041236252787	2609.99118391302	-3412.690757261082	809.1862643934121	2356.581107994243	-3226.468234274271	841.3292588979183	2524.410220829197	-3230.780838565108	845.7119186721378	2427.73278762651	-3329.854695985183	779.5906744261055	2679.46221172466	-3361.644607379784	809.0246787455648	2307.406932491393	-3415.391880911126	710.7715552345869	2720.136365080372	-3557.291214337345	699.93764316614	2680.205364678988	-3460.796497233828	547.7527805168353	2719.495207964354	-3672.020291648174	508.657925747516	2817.071918556018	-3720.892797917428	493.9248232669481	2711.721122913384	-3577.822015170219	443.6592469520484	2798.324071675022	-3570.815822630409	211.2617311171235	2761.959395241441	-3483.352118921368	250.6592968826713	2725.972716585931	-3459.529915084	104.3615176734744	2766.817227207648	-3492.877494982192	113.3184985205923	2684.978683555564	-3616.612265810533	50.71703976875109	2715.177564327816	-3566.202440046447	51.8294831878509	2828.211380668007	-3393.247945801336	78.67798549476127	2715.724297350724	-3514.81063205977	531.4695800424408	2271.49587316813	-3471.98761720016	673.7781089899332	2243.748003064984	-3578.416504487239	678.4493275975805	2355.363460761999	-3714.114982926099	500.9968697302926	2217.071460158086	-3739.978541098394	487.1388146459694	2326.295547296546	-3513.650277684494	248.9660595339415	2279.711544330006	-3634.181910939973	434.8505573683438	2206.554692496958	-3603.393034065487	204.291753361012	2262.038846085674	-3492.187697750523	108.9933978952913	2237.526186415458	-3525.627480723246	113.3605663227969	2323.341763909414	-3642.124573009613	53.32124920491631	2298.140869429068	-3607.205164181397	39.80353348628656	2181.614033711896	-3428.088207593471	79.04654199443512	2279.649066051225	-3620.330460716681	986.5401144824899	2496.559827895911	
296	46.38	-3601.912434015493	1294.984091003577	2489.334080813244	-3667.098617412303	1204.592287826114	2642.360903621331	-3405.113580069559	813.0862167440447	2610.037953080892	-3413.650810080549	813.0877939863179	2356.676673399709	-3227.536318455482	845.2136984604007	2524.68835748173	-3231.768950048262	849.5713641970194	2427.963207372364	-3331.070113956153	783.028129826272	2679.474449524682	-3362.553090178236	812.5476188273572	2307.535256277733	-3416.589012390285	713.3866084979959	2720.328667436374	-3558.43294560948	701.4699855165578	2680.452225290127	-3460.839706320545	549.9378329838545	2719.137641173395	-3671.83086430331	509.0238805546464	2816.573346612615	-3720.404178396233	494.1731029310949	2711.320284308021	-3577.38621257367	443.9607772322727	2797.860325562457	-3570.642022400486	211.4406720465005	2761.770133280152	-3483.126134876708	250.6933212640941	2725.729716795232	-3459.462337460798	104.3906593302842	2766.824348906907	-3492.810947507126	113.3275066476945	2684.952906439316	-3616.579971711368	50.73135680112446	2715.16180098033	-3566.205312340863	51.84319365308417	2828.20362850092	-3393.21536534205	78.65068455951594	2715.733150992067	-3514.371824416624	533.4351215724553	2271.874002135557	-3472.54985939392	675.9962054539628	2243.834280642622	-3579.209893103181	680.185879735953	2355.228895389035	-3713.469168531453	501.4571286080462	2217.236814297487	-3739.253736554969	487.6076481067728	2326.323446083816	-3513.247341345621	249.0370876156096	2279.776765571337	-3633.369459439758	435.281009858199	2206.735153660691	-3603.073927666101	204.5490960332573	2262.030204069345	-3492.046484267954	109.0218613184425	2237.487120734977	-3525.514527684516	113.417434545221	2323.300402886092	-3642.060456842119	53.34039791870059	2298.114284706791	-3607.213249415501	39.80251736969401	2181.606084492385	-3428.06257859793	79.00935079378884	2279.591995110034	-3620.746485447652	991.6943427258785	2496.512948761771	
297	46.385	-3601.174684575413	1300.042390157556	2489.116925135265	-3666.722176654161	1210.003361094483	2642.243427876194	-3406.31024564847	817.063461155962	2610.089532150963	-3414.631695519978	816.9909017607563	2356.772382062913	-3228.62689464628	849.086252873572	2524.971580853287	-3232.780376877954	853.4182463225483	2428.200859098359	-3332.313052750066	786.4551863183866	2679.485157583586	-3363.477185544988	816.0666092050551	2307.666637798016	-3417.80352614987	715.9902483582129	2720.524278873204	-3559.580386427449	702.9861310717873	2680.705218791693	-3460.891754631019	552.1201807677751	2718.783845008795	-3671.632050968645	509.3876367161834	2816.076430072192	-3719.905254539238	494.4193816593624	2710.929243764103	-3576.943982864737	444.2640178792423	2797.40807747176	-3570.467689537573	211.6219264152433	2761.581273251696	-3482.89514801358	250.7274946416939	2725.492703143897	-3459.395405837895	104.4193477998184	2766.832195670947	-3492.746355594948	113.3340438478392	2684.928952618641	-3616.549109378189	50.74518083110102	2715.144767350196	-3566.209097402211	51.85856591468568	2828.195978029884	-3393.183124024592	78.6243356399652	2715.741646064264	-3513.937933543242	535.3979356974853	2272.254639611491	-3473.118806562838	678.2031642928591	2243.923818593249	-3580.015996842449	681.9158012049813	2355.087586736937	-3712.820168833191	501.9208531374831	2217.395784884821	-3738.527611440253	488.0804562764818	2326.343545108843	-3512.846781523285	249.108377961525	2279.844013407333	-3632.551325250847	435.7135916272915	2206.910689224451	-3602.755677609747	204.8119116709123	2262.018548399712	-3491.909555409809	109.054002616811	2237.446477799857	-3525.405740556693	113.4729838948523	2323.257471621137	-3642.000173751381	53.35464466296236	2298.090865325587	-3607.223756476762	39.8002483971816	2181.595363511251	-3428.038134289384	78.97377515443276	2279.535549857908	-3621.166936437762	996.8634538910824	2496.467215533435	
298	46.39	-3600.419942329575	1305.107662347789	2488.899409763475	-3666.339443220758	1215.432316099369	2642.123366506313	-3407.534031629189	821.0346886509832	2610.14607814906	-3415.633715763436	820.8936460472589	2356.86863007496	-3229.740238854939	852.9456671457509	2525.259094736744	-3233.815651699276	857.2510696038092	2428.444812203712	-3333.583759162097	789.8711282194839	2679.494306635678	-3364.417707141099	819.580047929198	2307.800968895121	-3419.035787986515	718.5814425229654	2720.722724614679	-3560.733521198599	704.4856062713739	2680.963453183298	-3460.953348040749	554.2993443942253	2718.433540971429	-3671.424442484506	509.7492858829723	2815.580443547781	-3719.397678499621	494.6644807371463	2710.546883162385	-3576.496047179496	444.56893727037	2796.966228190605	-3570.293052060178	211.805805774905	2761.392769144019	-3482.659453874245	250.7621936893279	2725.26168754263	-3459.329573193454	104.4475594598037	2766.840482603709	-3492.683999767295	113.3378192494826	2684.906747457136	-3616.519923826313	50.75823152507112	2715.126132046983	-3566.213907822172	51.87562625576183	2828.188069732993	-3393.151384404429	78.59919529059481	2715.749728802971	-3513.509925809365	537.3573291751472	2272.638367419923	-3473.695574026141	680.398304006507	2244.017305007423	-3580.835500148825	683.6379503407761	2354.940611153898	-3712.169145639586	502.3875993292622	2217.54941831355	-3737.801051027852	488.5564604799102	2326.35687416083	-3512.449821472292	249.1796176787207	2279.913654261566	-3631.72888733206	436.1478745330932	2207.082190919081	-3602.439069948442	205.079736651575	2262.004348074086	-3491.777866204264	109.08951398712	2237.404351153922	-3525.302247332111	113.5263690270751	2323.213243479289	-3641.944556757421	53.3641446900256	2298.071213975377	-3607.236593806765	39.79659010023192	2181.582057141408	-3428.015092069617	78.94033304414374	2279.480075107312	-3621.590671432569	1002.046401726635	2496.422734540263	
